<mxfile host="app.diagrams.net" modified="2024-05-28T07:10:17.443Z" agent="Mozilla/5.0 (Macintosh; Intel Mac OS X 10_15_7) AppleWebKit/537.36 (KHTML, like Gecko) Chrome/121.0.0.0 Safari/537.36 Edg/121.0.0.0" version="24.4.9" etag="zLS3NI3rtQf6avnrazOG" type="github">
  <diagram name="第 1 页" id="0mV8cYxWW0XwXSrW4eNb">
    <mxGraphModel>
      <root>
        <mxCell id="0" />
        <mxCell id="1" parent="0" />
      </root>
    </mxGraphModel>
  </diagram>
</mxfile>
